<svg width="120" height="119" viewBox="0 0 120 119" fill="none" xmlns="http://www.w3.org/2000/svg">
    <path d="M0.90625 0.899994V80.7H10.1992C9.13934 83.6773 8.53125 86.8655 8.53125 90.2C8.53125 105.915 21.3584 118.7 37.125 118.7C52.8916 118.7 65.7188 105.915 65.7188 90.2C65.7188 86.8655 65.1107 83.6773 64.0508 80.7H74.2816L74.8878 85.5317C75.1738 87.8231 76.0621 90.0119 77.4536 91.8606L80.9688 96.5327V99.7H77.1562V118.7H119.094V99.7H115.281V96.3484L117.685 91.5566C118.608 89.7193 119.094 87.6635 119.094 85.6096V69.319V65.5V0.899994H0.90625ZM115.281 4.69999V16.1H4.71875V4.69999H115.281ZM37.125 114.9C23.461 114.9 12.3438 103.819 12.3438 90.2C12.3438 76.5808 23.461 65.5 37.125 65.5C50.789 65.5 61.9062 76.5808 61.9062 90.2C61.9062 103.819 50.789 114.9 37.125 114.9ZM62.3943 76.9C57.5905 67.8712 48.0726 61.7 37.125 61.7C26.1774 61.7 16.6576 67.8712 11.8558 76.9H4.71875V19.9H115.281V60.1496C114.683 59.9368 114.046 59.8 113.375 59.8C112.704 59.8 112.067 59.9368 111.469 60.1496V59.8C111.469 56.6574 108.903 54.1 105.75 54.1C104.28 54.1 102.952 54.6719 101.938 55.582C100.923 54.67 99.5947 54.1 98.125 54.1C97.454 54.1 96.8173 54.2368 96.2188 54.4496V46.5H105.75C108.903 46.5 111.469 43.9426 111.469 40.8V29.4C111.469 26.2574 108.903 23.7 105.75 23.7H75.25C72.0971 23.7 69.5312 26.2574 69.5312 29.4V40.8C69.5312 43.9426 72.0971 46.5 75.25 46.5H84.7812V66.2106C84.6669 66.089 84.5506 65.9674 84.4305 65.8496C81.7465 63.1725 78.1761 61.7 74.3788 61.7C71.7063 61.7 69.5312 63.8622 69.5312 66.5165C69.5312 67.4703 69.8115 68.3937 70.3433 69.1879L72.3048 72.1215C73.0311 73.2064 73.5001 74.4642 73.6621 75.7581L73.8051 76.9H62.3943ZM84.7812 37V42.7H75.25C74.1997 42.7 73.3438 41.8469 73.3438 40.8V29.4C73.3438 28.3531 74.1997 27.5 75.25 27.5H105.75C106.8 27.5 107.656 28.3531 107.656 29.4V40.8C107.656 41.8469 106.8 42.7 105.75 42.7H96.2188V37C96.2188 33.8574 93.6529 31.3 90.5 31.3C87.3471 31.3 84.7812 33.8574 84.7812 37ZM115.281 114.9H80.9688V103.5H85.6677L90.2045 110.281L97.0079 103.5H115.281V114.9ZM115.281 85.6096C115.281 87.0745 114.932 88.5451 114.275 89.8561L111.469 95.4516V99.7H95.4296L90.7955 104.319L87.7073 99.7H84.7812V95.2673L80.5036 89.5806C79.5105 88.262 78.8757 86.6964 78.6717 85.0605L77.446 75.2869C77.2096 73.4097 76.5291 71.5857 75.4768 70.0144L73.5153 67.0808C73.4028 66.9136 73.3438 66.7198 73.3438 66.5165C73.3438 65.9465 73.7993 65.5 74.3788 65.5C77.1582 65.5 79.7697 66.5773 81.7332 68.5381C83.6985 70.4951 84.7793 73.0981 84.7793 75.8683V82.6H88.5918V37C88.5918 35.9531 89.4478 35.1 90.4981 35.1C91.5484 35.1 92.4043 35.9531 92.4043 37V59.8V67.4H96.2168V59.8C96.2168 58.7531 97.0728 57.9 98.1231 57.9C99.1734 57.9 100.029 58.7531 100.029 59.8V67.4H103.842V59.8C103.842 58.7531 104.698 57.9 105.748 57.9C106.798 57.9 107.654 58.7531 107.654 59.8V65.5V67.4H111.467V65.5C111.467 64.4512 112.323 63.6 113.373 63.6C114.423 63.6 115.279 64.4512 115.279 65.5V69.319V85.6096H115.281Z" fill="#000634"/>
    <path d="M12.3438 8.5H8.53125V12.3H12.3438V8.5Z" fill="#000634"/>
    <path d="M19.9688 8.5H16.1562V12.3H19.9688V8.5Z" fill="#000634"/>
    <path d="M27.5938 8.5H23.7812V12.3H27.5938V8.5Z" fill="#000634"/>
    <path d="M56.1875 23.7H14.25C11.0971 23.7 8.53125 26.2574 8.53125 29.4V52.2C8.53125 55.3426 11.0971 57.9 14.25 57.9H56.1875C59.3404 57.9 61.9062 55.3426 61.9062 52.2V29.4C61.9062 26.2574 59.3404 23.7 56.1875 23.7ZM58.0938 52.2C58.0938 53.2469 57.2378 54.1 56.1875 54.1H14.25C13.1997 54.1 12.3438 53.2469 12.3438 52.2V29.4C12.3438 28.3531 13.1997 27.5 14.25 27.5H56.1875C57.2378 27.5 58.0938 28.3531 58.0938 29.4V52.2Z" fill="#000634"/>
    <path d="M54.0182 87.2132L57.7735 86.552C57.5314 85.1802 57.1483 83.8274 56.6374 82.5354L53.0898 83.9262C53.5073 84.9845 53.8199 86.0903 54.0182 87.2132Z" fill="#000634"/>
    <path d="M53.9362 93.6219L57.6725 94.3781C57.9184 93.1735 58.0575 91.9404 58.0861 90.7092L54.2755 90.6161C54.2507 91.6269 54.1364 92.6358 53.9362 93.6219Z" fill="#000634"/>
    <path d="M49.3765 78.23C50.1771 79.0451 50.8996 79.94 51.5229 80.8938L54.7178 78.819C53.9572 77.6562 53.0765 76.5618 52.0986 75.5681L49.3765 78.23Z" fill="#000634"/>
    <path d="M24.8735 78.23L22.1514 75.57C17.7861 80.0027 15.6397 86.0979 16.2611 92.29L20.0545 91.9119C19.5456 86.8427 21.3031 81.8571 24.8735 78.23Z" fill="#000634"/>
    <path d="M17.117 96.4681C17.5745 97.9235 18.194 99.3314 18.9603 100.65L22.2601 98.75C21.6348 97.6708 21.1278 96.5213 20.7541 95.3319L17.117 96.4681Z" fill="#000634"/>
    <path d="M46.6562 84.8496V78.8C46.6562 73.5617 42.3805 69.3 37.125 69.3C31.8695 69.3 27.5938 73.5617 27.5938 78.8V84.8496C25.3806 85.6362 23.7812 87.7262 23.7812 90.2V105.4C23.7812 108.543 26.3471 111.1 29.5 111.1H44.75C47.9029 111.1 50.4688 108.543 50.4688 105.4V90.2C50.4688 87.7262 48.8694 85.6362 46.6562 84.8496ZM37.125 73.1C40.2779 73.1 42.8438 75.6574 42.8438 78.8V84.5H31.4062V78.8C31.4062 75.6574 33.9721 73.1 37.125 73.1ZM46.6562 105.4C46.6562 106.449 45.8003 107.3 44.75 107.3H29.5C28.4497 107.3 27.5938 106.449 27.5938 105.4V90.2C27.5938 89.1512 28.4497 88.3 29.5 88.3H44.75C45.8003 88.3 46.6562 89.1512 46.6562 90.2V105.4Z" fill="#000634"/>
    <path d="M37.125 90.2C33.9721 90.2 31.4062 92.7574 31.4062 95.9C31.4062 98.3738 33.0056 100.464 35.2188 101.25V105.4H39.0312V101.25C41.2444 100.464 42.8438 98.3738 42.8438 95.9C42.8438 92.7574 40.2779 90.2 37.125 90.2ZM37.125 97.8C36.0747 97.8 35.2188 96.9488 35.2188 95.9C35.2188 94.8512 36.0747 94 37.125 94C38.1753 94 39.0312 94.8512 39.0312 95.9C39.0312 96.9488 38.1753 97.8 37.125 97.8Z" fill="#000634"/>
    <path d="M19.9688 31.3H16.1562V35.1H19.9688V31.3Z" fill="#000634"/>
    <path d="M54.2812 31.3H23.7812V35.1H54.2812V31.3Z" fill="#000634"/>
    <path d="M54.2812 38.9H16.1562V42.7H54.2812V38.9Z" fill="#000634"/>
    <path d="M31.4062 46.5H16.1562V50.3H31.4062V46.5Z" fill="#000634"/>
    <path d="M54.2812 46.5H50.4688V50.3H54.2812V46.5Z" fill="#000634"/>
    <path d="M39.0312 46.5H35.2188V50.3H39.0312V46.5Z" fill="#000634"/>
    <path d="M46.6562 46.5H42.8438V50.3H46.6562V46.5Z" fill="#000634"/>
</svg>
