<svg width="116" height="101" viewBox="0 0 116 101" fill="none" xmlns="http://www.w3.org/2000/svg">
<g clip-path="url(#clip0)">
<path fill-rule="evenodd" clip-rule="evenodd" d="M56.936 84.71C57.362 84.955 57.829 85.07 58.287 85.07C59.224 85.07 60.135 84.587 60.637 83.725C60.8147 83.4187 60.93 83.0803 60.9763 82.7293C61.0226 82.3782 60.9988 82.0215 60.9065 81.6796C60.8142 81.3378 60.6551 81.0176 60.4384 80.7376C60.2217 80.4575 59.9517 80.2232 59.644 80.048L33.212 64.896V55.16L54.497 67.368C54.3314 66.7318 54.3324 66.0637 54.5 65.428C54.6326 64.9319 54.8625 64.4671 55.1763 64.0605C55.4902 63.654 55.8816 63.3139 56.328 63.06L57.075 62.63L33.205 48.941V18.636C33.205 17.676 32.689 16.786 31.851 16.306L4.065 0.360004C3.6526 0.123417 3.18544 -0.00106812 2.71 -0.00106812C2.23456 -0.00106812 1.7674 0.123417 1.355 0.360004C0.943797 0.594714 0.601914 0.93391 0.363967 1.34325C0.126021 1.75259 0.000460386 2.21753 0 2.691L0 34.573C0.00117975 34.9277 0.0722194 35.2786 0.209061 35.6058C0.345902 35.933 0.545864 36.23 0.797525 36.4799C1.04919 36.7298 1.34761 36.9277 1.67576 37.0622C2.00391 37.1968 2.35535 37.2653 2.71 37.264C3.06457 37.2652 3.4159 37.1965 3.74393 37.0619C4.07197 36.9273 4.37027 36.7294 4.62183 36.4796C4.87338 36.2297 5.07326 35.9327 5.21003 35.6056C5.34681 35.2784 5.41782 34.9276 5.419 34.573V7.354L13.906 12.224L13.893 42.534C13.8943 42.8886 13.9654 43.2394 14.1023 43.5665C14.2392 43.8936 14.4392 44.1905 14.6909 44.4403C14.9425 44.6901 15.2409 44.8878 15.569 45.0223C15.8971 45.1568 16.2484 45.2253 16.603 45.224C17.3189 45.2264 18.0065 44.9444 18.5145 44.4399C19.0225 43.9355 19.3094 43.2499 19.312 42.534L19.323 15.334L27.787 20.19V50.51C27.787 50.532 27.793 50.555 27.794 50.578V66.348C27.791 66.458 27.784 66.565 27.794 66.674V82.38C27.794 83.343 28.311 84.232 29.149 84.712L56.936 100.64C57.347 100.876 57.8128 101.001 58.287 101.001C59.224 101.001 60.135 100.518 60.637 99.655C60.8147 99.3487 60.93 99.0103 60.9763 98.6593C61.0226 98.3082 60.9988 97.9515 60.9065 97.6096C60.8142 97.2678 60.6551 96.9476 60.4384 96.6676C60.2217 96.3875 59.9517 96.1532 59.644 95.978L33.212 80.826V71.11L56.936 84.71Z" fill="#C21712"/>
<mask id="mask0" mask-type="alpha" maskUnits="userSpaceOnUse" x="83" y="49" width="33" height="52">
<path d="M83.219 49.544H115.884V100.619H83.219V49.544Z" fill="white"/>
</mask>
<g mask="url(#mask0)">
<path fill-rule="evenodd" clip-rule="evenodd" d="M110.554 77.473L88.553 64.73V55.055L110.554 67.81V77.472V77.473ZM114.552 63.951L89.702 49.544V50.414C89.702 51.794 88.963 53.08 87.774 53.77L83.223 56.406V66.184C83.22 66.288 83.215 66.392 83.223 66.494V82.098C83.2219 82.806 83.5021 83.4854 84.0018 83.9868C84.5016 84.4882 85.18 84.7707 85.888 84.772C86.596 84.7707 87.2744 84.4882 87.7742 83.9868C88.2739 83.4854 88.5541 82.806 88.553 82.098V70.906L110.554 83.65V97.943C110.553 98.2937 110.622 98.6412 110.755 98.9655C110.889 99.2898 111.085 99.5846 111.332 99.8331C111.58 100.082 111.874 100.279 112.197 100.414C112.521 100.549 112.868 100.618 113.219 100.619C113.57 100.618 113.917 100.549 114.241 100.414C114.564 100.279 114.858 100.082 115.106 99.8331C115.353 99.5846 115.549 99.2898 115.683 98.9655C115.816 98.6412 115.885 98.2937 115.884 97.943V66.267C115.884 65.312 115.377 64.428 114.552 63.951Z" fill="#C21712"/>
</g>
<path fill-rule="evenodd" clip-rule="evenodd" d="M57.347 52.763C58.18 53.242 59.207 53.242 60.039 52.763L83.616 39.21V48.895L57.346 63.997C57.0401 64.1722 56.7718 64.406 56.5566 64.6852C56.3414 64.9644 56.1835 65.2833 56.092 65.6237C56.0005 65.9641 55.9771 66.3193 56.0233 66.6687C56.0694 67.0182 56.1842 67.3551 56.361 67.66C56.7191 68.2774 57.3075 68.7274 57.9971 68.9113C58.6867 69.0952 59.421 68.998 60.039 68.641L87.654 52.764C88.0629 52.5297 88.4027 52.1916 88.639 51.7839C88.8754 51.3762 88.9999 50.9133 89 50.442V34.565C89 33.608 88.487 32.722 87.654 32.244C87.2445 32.0086 86.7804 31.8847 86.308 31.8847C85.8356 31.8847 85.3715 32.0086 84.962 32.244L61.385 45.797V36.106L86.468 21.686C88.154 20.718 89 20.23 89 18.68C89 17.2 87.795 16 86.308 16C85.8116 15.999 85.3247 16.1354 84.901 16.394C83.968 16.936 66.551 26.946 57.348 32.235C56.9387 32.4691 56.5986 32.8071 56.3618 33.2148C56.1251 33.6225 56.0003 34.0855 56 34.557V50.442C56 51.4 56.513 52.285 57.346 52.763" fill="#C21712"/>
</g>
<defs>
<clipPath id="clip0">
<rect width="116" height="101" fill="white"/>
</clipPath>
</defs>
</svg>
